<?xml version="1.0" encoding="utf-8"?>
<!-- Generator: Adobe Illustrator 16.0.3, SVG Export Plug-In . SVG Version: 6.00 Build 0)  -->
<!DOCTYPE svg PUBLIC "-//W3C//DTD SVG 1.1//EN" "http://www.w3.org/Graphics/SVG/1.1/DTD/svg11.dtd">
<svg version="1.1" id="レイヤー_1" xmlns="http://www.w3.org/2000/svg" xmlns:xlink="http://www.w3.org/1999/xlink" x="0px"
	 y="0px" width="120px" height="120px" viewBox="580 580 120 120" enable-background="new 580 580 120 120" xml:space="preserve">
<path fill="#9E9E9E" d="M640,580c-33.135,0-60,26.875-60,60c0,33.145,26.865,60,60,60s60-26.855,60-60
	C700,606.875,673.135,580,640,580z M640,688.387c-26.742,0-48.387-21.637-48.387-48.387c0-26.732,21.646-48.387,48.387-48.387
	c26.731,0,48.387,21.646,48.387,48.387C688.387,666.741,666.751,688.387,640,688.387z M665.947,626.645
	c0,16.222-17.521,16.472-17.521,22.466v1.533c0,1.604-1.3,2.904-2.903,2.904h-11.043c-1.604,0-2.903-1.301-2.903-2.904v-2.094
	c0-8.648,6.557-12.105,11.511-14.883c4.248-2.382,6.853-4.002,6.853-7.156c0-4.172-5.322-6.942-9.625-6.942
	c-5.61,0-8.2,2.656-11.841,7.25c-0.982,1.239-2.773,1.469-4.032,0.514l-6.731-5.104c-1.236-0.937-1.513-2.677-0.64-3.959
	c5.716-8.394,12.997-13.109,24.333-13.109C653.274,605.161,665.947,614.428,665.947,626.645z M650.161,667.097
	c0,5.603-4.559,10.161-10.161,10.161c-5.603,0-10.161-4.559-10.161-10.161s4.558-10.161,10.161-10.161
	C645.603,656.936,650.161,661.494,650.161,667.097z"/>
</svg>
