<?xml version="1.0" encoding="utf-8"?>
<!-- Generator: Adobe Illustrator 16.0.3, SVG Export Plug-In . SVG Version: 6.00 Build 0)  -->
<!DOCTYPE svg PUBLIC "-//W3C//DTD SVG 1.1//EN" "http://www.w3.org/Graphics/SVG/1.1/DTD/svg11.dtd">
<svg version="1.1" id="レイヤー_1" xmlns="http://www.w3.org/2000/svg" xmlns:xlink="http://www.w3.org/1999/xlink" x="0px"
	 y="0px" width="120px" height="120px" viewBox="580 580 120 120" enable-background="new 580 580 120 120" xml:space="preserve">
<path fill="#F9ACAC" d="M700,640c0,33.145-26.865,60-60,60s-60-26.855-60-60c0-33.125,26.865-60,60-60S700,606.875,700,640z
	 M641.611,599.839c-13.185,0-21.594,5.554-28.198,15.425c-0.855,1.279-0.569,3.003,0.657,3.933l8.395,6.365
	c1.259,0.955,3.054,0.728,4.032-0.513c4.322-5.482,7.286-8.661,13.864-8.661c4.943,0,11.056,3.181,11.056,7.974
	c0,3.624-2.991,5.484-7.871,8.22c-5.691,3.19-13.222,7.161-13.222,17.095v0.967c0,1.604,1.3,2.904,2.903,2.904h13.549
	c1.604,0,2.903-1.301,2.903-2.904v-0.322c0-6.886,20.125-7.172,20.125-25.806C669.803,610.483,655.247,599.839,641.611,599.839z
	 M640,659.839c-6.137,0-11.129,4.992-11.129,11.129c0,6.136,4.992,11.129,11.129,11.129s11.129-4.993,11.129-11.129
	C651.129,664.831,646.137,659.839,640,659.839z"/>
</svg>
