<?xml version="1.0" encoding="utf-8"?>
<!-- Generator: Adobe Illustrator 16.0.3, SVG Export Plug-In . SVG Version: 6.00 Build 0)  -->
<!DOCTYPE svg PUBLIC "-//W3C//DTD SVG 1.1//EN" "http://www.w3.org/Graphics/SVG/1.1/DTD/svg11.dtd">
<svg version="1.1" id="レイヤー_1" xmlns="http://www.w3.org/2000/svg" xmlns:xlink="http://www.w3.org/1999/xlink" x="0px"
	 y="0px" width="100px" height="100px" viewBox="0 0 100 100" enable-background="new 0 0 100 100" xml:space="preserve">
<path fill="#666666" d="M50,50c13.809,0,25-11.191,25-25c0-13.81-11.191-25-25-25c-13.809,0-25,11.19-25,25
	C25,38.809,36.191,50,50,50z M67.5,56.25h-3.262c-4.336,1.992-9.16,3.125-14.238,3.125s-9.883-1.133-14.238-3.125H32.5
	c-14.492,0-26.25,11.758-26.25,26.25v8.125c0,5.176,4.199,9.375,9.375,9.375h68.75c5.176,0,9.375-4.199,9.375-9.375V82.5
	C93.75,68.008,81.992,56.25,67.5,56.25z"/>
</svg>
